# xmcd CD database file
#
# Track frame offsets:
#	150
#	15941
#	30750
#	46228
#	60386
#	79496
#	97496
#	118601
#	139657
#	156267
#	172572
#	189079
#	214052
#
# Disc length: 4721 seconds
#
# Revision: 0
# Processed by: cddbd v1.5.1PL2 Copyright (c) Steve Scherf et al.
# Submitted via: CDex 1.40Release
#
DISCID=99126f0d
DTITLE=Katie Melua - Piece By Piece
DYEAR=1900
DGENRE=Blues
TTITLE0=Shy boy
TTITLE1=Nine million bicycles
TTITLE2=Piece by piece
TTITLE3=Halfway up the hindu kush
TTITLE4=Blues in the night
TTITLE5=Spider's web
TTITLE6=Blue shoes
TTITLE7=On the road again
TTITLE8=Thankyou, stars
TTITLE9=Just like heaven
TTITLE10=I cried for you
TTITLE11=I do believe in love
TTITLE12=Data Track
EXTD=ID3G: 0
EXTT0=
EXTT1=
EXTT2=
EXTT3=
EXTT4=
EXTT5=
EXTT6=
EXTT7=
EXTT8=
EXTT9=
EXTT10=
EXTT11=
EXTT12=
PLAYORDER=
